#!OML:ASF F:\VICON\USERDATA\INSTALL\rory3\rory3.ASF
:FULLY-SPECIFIED
:DEGREES
2195
root -0.0141362 14.6615 17.6954 784.043 44.0426 90.7393
lowerback -21.4695 -11.0751 2.01705
upperback -17.3033 -13.6691 2.33391
thorax -7.38325 -6.80811 -0.530484
lowerneck 1.06916 -23.8458 -17.8772
upperneck -9.74321 -31.3546 34.8057
head 5.89236 -15.4988 9.81257
rclavicle -1.22451e-013 1.59028e-014
rhumerus -14.3244 -46.501 24.4611
rradius 37.9955
rwrist -12.6232
rhand -20.0322 -53.6875
rfingers 7.12502
rthumb -173.691 456.426
lclavicle -1.22451e-013 1.59028e-014
lhumerus -4.00569 14.0413 9.61344
lradius 24.7543
lwrist 38.8862
lhand -30.7877 -12.8526
lfingers 7.12502
lthumb -4.07811 17.0881
rfemur -38.2663 -4.3549 32.5276
rtibia 54.378
rfoot 2.8001 -21.0083
rtoes 19.3141
lfemur 7.96747 29.1603 -9.18284
ltibia 83.2611
lfoot 11.5117 -3.311
ltoes -3.02049
2196
root -0.00659624 14.6686 17.7165 784.933 43.7701 91.395
lowerback -21.3144 -11.0974 1.75837
upperback -17.405 -13.6521 2.29346
thorax -7.52705 -6.77593 -0.402366
lowerneck 0.337931 -24.0596 -17.9898
upperneck -8.45182 -31.919 34.1848
head 6.39956 -15.5857 9.36439
rclavicle 1.59028e-015 5.725e-014
rhumerus -14.0499 -46.6703 24.2195
rradius 37.8535
rwrist -12.2417
rhand -20.27 -53.6014
rfingers 7.12502
rthumb -173.921 456.506
lclavicle 1.59028e-015 5.725e-014
lhumerus -4.20717 13.7096 9.47562
lradius 24.7899
lwrist 39.0437
lhand -30.1141 -14.2928
lfingers 7.12502
lthumb -3.42769 15.6594
rfemur -38.4045 -4.14749 32.2141
rtibia 54.5261
rfoot 2.88602 -21.0296
rtoes 18.4331
lfemur 7.7455 29.1203 -9.89686
ltibia 83.3194
lfoot 11.4119 -3.01885
ltoes -2.94253
2197
root 0.0118264 14.6521 17.7387 786.231 43.4228 92.4244
lowerback -21.3946 -11.1895 1.1811
upperback -17.4976 -13.6741 2.18508
thorax -7.4878 -6.73774 -0.240484
lowerneck 0.297098 -24.089 -18.0395
upperneck -8.14138 -32.0276 33.986
head 6.48621 -15.6065 9.27094
rclavicle -5.56597e-014 -8.5875e-014
rhumerus -14.3209 -46.12 24.3658
rradius 38.0506
rwrist -12.5449
rhand -19.9526 -53.242
rfingers 7.12502
rthumb -173.614 456.874
lclavicle -5.56597e-014 -8.5875e-014
lhumerus -4.02848 13.8495 9.62965
lradius 24.7602
lwrist 38.7156
lhand -29.9535 -14.4202
lfingers 7.12502
lthumb -3.27255 15.5344
rfemur -38.7875 -4.06822 31.7805
rtibia 54.5949
rfoot 3.47322 -20.9934
rtoes 19.9968
lfemur 7.4207 29.2035 -10.4246
ltibia 83.4586
lfoot 11.3942 -2.82352
ltoes -2.48491
2198
root 0.0349738 14.6356 17.7643 788.054 41.7759 93.7218
lowerback -21.9153 -11.3486 -0.589805
upperback -17.6121 -13.5952 1.93512
thorax -7.01623 -6.55209 0.290542
lowerneck 0.284273 -24.0123 -18.0143
upperneck -8.34657 -31.8544 34.0919
head 6.40796 -15.5427 9.35168
rclavicle -9.54166e-015 5.725e-014
rhumerus -14.7477 -45.6734 24.7184
rradius 38.24
rwrist -13.0392
rhand -19.1074 -52.7482
rfingers 7.12502
rthumb -172.799 457.394
lclavicle -9.54166e-015 5.725e-014
lhumerus -3.77143 14.321 9.88494
lradius 24.6426
lwrist 38.3185
lhand -29.9099 -13.9419
lfingers 7.12502
lthumb -3.23044 16.0134
rfemur -39.8233 -3.7744 29.9656
rtibia 54.9742
rfoot 3.60755 -20.912
rtoes 17.7376
lfemur 6.52696 29.3674 -13.1602
ltibia 83.4294
lfoot 11.432 -2.00956
ltoes -2.21208
2199
root 0.0518802 14.6698 17.8295 788.7 44.1598 93.8724
lowerback -22.382 -11.3029 1.48028
upperback -17.3023 -13.813 2.46629
thorax -6.77616 -6.80564 -0.327375
lowerneck 0.30543 -23.9006 -17.9155
upperneck -8.70765 -31.5943 34.3689
head 6.28559 -15.4549 9.50675
rclavicle -8.11041e-014 1.59028e-014
rhumerus -15.1035 -44.8538 24.8944
rradius 38.5281
rwrist -14.1023
rhand -19.1499 -53.0047
rfingers 7.12502
rthumb -172.84 457.136
lclavicle -8.11041e-014 1.59028e-014
lhumerus -3.70016 14.4368 9.96172
lradius 24.6157
lwrist 38.4986
lhand -29.8596 -14.1172
lfingers 7.12502
lthumb -3.18183 15.8388
rfemur -39.5069 -4.20574 32.5074
rtibia 54.6706
rfoot 2.84883 -21.3371
rtoes 19.6385
lfemur 6.15078 28.4831 -10.8944
ltibia 83.586
lfoot 11.4891 -1.91344
ltoes -1.94237
2200
root 0.0790729 14.64 17.8204 789.703 44.1414 94.6754
lowerback -22.4925 -11.365 1.41963
upperback -17.2872 -13.8765 2.41885
thorax -6.70633 -6.83371 -0.378626
lowerneck 0.507013 -23.8639 -17.791
upperneck -8.73415 -31.531 34.2932
head 6.19195 -15.4499 9.52031
rclavicle 2.8625e-014 -1.59028e-014
rhumerus -15.1447 -44.3618 24.7473
rradius 38.6722
rwrist -14.5735
rhand -19.8532 -53.1153
rfingers 7.12502
rthumb -173.518 457.004
lclavicle 2.8625e-014 -1.59028e-014
lhumerus -3.65833 14.1411 9.89907
lradius 24.6532
lwrist 38.8257
lhand -30.2819 -14.028
lfingers 7.12502
lthumb -3.5897 15.9215
rfemur -39.8869 -4.30223 32.4943
rtibia 54.8841
rfoot 2.58946 -21.5699
rtoes 21.6759
lfemur 6.50629 29.3194 -9.79071
ltibia 83.8112
lfoot 11.3929 -3.05338
ltoes -2.44536
2201
root 0.0971418 14.6469 17.8499 790.902 43.683 95.6613
lowerback -22.6419 -11.4897 0.89122
upperback -17.3019 -13.9454 2.35216
thorax -6.54295 -6.82509 -0.229651
lowerneck 0.319972 -23.92 -17.8867
upperneck -8.38201 -31.6759 34.0407
head 6.31813 -15.4737 9.38483
rclavicle 7.95139e-015 9.85972e-014
rhumerus -14.8555 -44.9662 24.537
rradius 38.5169
rwrist -14.0151
rhand -20.3661 -53.0806
rfingers 7.12502
rthumb -174.014 457.024
lclavicle 7.95139e-015 9.85972e-014
lhumerus -3.74892 13.9619 9.88052
lradius 24.7768
lwrist 38.9928
lhand -30.4715 -14.1173
lfingers 7.12502
lthumb -3.77278 15.8291
rfemur -40.0324 -4.4054 31.9261
rtibia 54.7614
rfoot 2.7044 -21.5794
rtoes 21.3335
lfemur 6.22707 29.0809 -10.9017
ltibia 83.7038
lfoot 11.3755 -2.4437
ltoes -1.23001
2202
root 0.105474 14.6754 17.8535 791.29 44.3975 96.2334
lowerback -22.0457 -11.318 1.84481
upperback -17.1358 -13.8935 2.41095
thorax -6.84807 -6.87473 -0.53407
lowerneck -0.105816 -24.0279 -18.0558
upperneck -7.98666 -31.8901 33.8724
head 6.54414 -15.5014 9.22686
rclavicle 1.44715e-013 6.36111e-014
rhumerus -14.7084 -45.7116 24.623
rradius 38.3079
rwrist -13.3479
rhand -20.3594 -53.461
rfingers 7.12502
rthumb -174.007 456.644
lclavicle 1.44715e-013 6.36111e-014
lhumerus -3.90798 13.6927 9.96395
lradius 25.1218
lwrist 39.5104
lhand -30.4811 -14.2422
lfingers 7.12502
lthumb -3.78202 15.704
rfemur -39.5272 -4.95717 32.5641
rtibia 54.7235
rfoot 2.84574 -21.238
rtoes 20.3006
lfemur 6.89617 28.9809 -9.91316
ltibia 83.6345
lfoot 11.2079 -2.37832
ltoes -0.410149
